Coordinates
version=1
nRows=16
nColumns=33
inDegrees=yes

Units are S.I. units (second, meters, Newtons, ...)
Angles are in degrees.

endheader
time	ground_thorax_rot_x	ground_thorax_rot_y	ground_thorax_rot_z	ground_thorax_tx	ground_thorax_ty	ground_thorax_tz	clav_prot_r	clav_elev_r	scapula_abduction_r	scapula_elevation_r	scapula_upward_rot_r	scapula_winging_r	shoulder_elv_r	plane_of_elev_r	axial_rot_r	elbow_flexion_r	pro_sup_r	wrist_flex_r	wrist_dev_r	clav_prot_l	clav_elev_l	scapula_abduction_l	scapula_elevation_l	scapula_upward_rot_l	scapula_winging_l	shoulder_elv_l	plane_of_elev_l	axial_rot_l	elbow_flexion_l	pro_sup_l	wrist_flex_l	wrist_dev_l
      2.63000000	     29.18522406	     30.35347794	     38.34131828	    -14.62710659	    794.00901619	    -43.07771809	      2.40874741	     42.88999660	     38.85853433	     45.00000000	      3.56163114	  -2282.45466593	  -2266.89162735	    144.16603452	   -179.99999979	   1427.77040248	     70.12650825	     19.88596551	     13.80557051	    -10.15519156	    -45.00000000	    -37.91968064	     45.00000000	    -45.00000000	  -2055.62221210	    437.42852336	     23.79357885	     19.86810657	   1430.57085419	   -312.02187929	     11.53669024	    -17.05389305
      2.64000000	     29.21764511	     30.15295061	     38.01015311	    -16.80605818	    795.82991430	    -43.25347575	      2.40631965	     42.82338186	     38.93271860	     45.00000000	      3.87739403	  -2282.51672845	  -2266.66331019	    144.19822745	   -179.99999979	   1427.62717964	     69.90529991	     19.91671992	     13.92751459	    -10.11983136	    -45.00000000	    -38.04183805	     45.00000000	    -45.00000000	  -2055.57592062	    437.56724751	     23.92565017	     20.16771789	   1430.56962439	   -312.28590227	     11.62165541	    -17.11588226
      2.65000000	     29.25755443	     29.94503919	     37.84448681	    -18.93385246	    797.72232704	    -43.44106450	      2.41584769	     42.71743210	     38.96472836	     45.00000000	      4.08177779	  -2282.54069733	  -2266.48642245	    144.13392485	   -179.99999979	   1427.55608128	     69.67609938	     19.97035834	     14.02837046	     -9.97494020	    -45.00000000	    -38.16221095	     45.00000000	    -45.00000000	  -2055.45230532	    437.65725981	     23.94941040	     20.37751608	   1430.51385824	   -312.59081957	     11.73514544	    -17.18698125
      2.66000000	     29.32024242	     29.72531900	     37.57609579	    -21.00437509	    799.67887962	    -43.63936928	      2.43828071	     42.63975336	     39.04720514	     45.00000000	      4.36742018	  -2282.57180648	  -2266.24436290	    144.15517702	   -179.99999979	   1427.49685509	     69.41817620	     20.03754440	     14.14012776	     -9.95818884	    -45.00000000	    -38.28780228	     45.00000000	    -45.00000000	  -2055.39523895	    437.75306864	     24.00587435	     20.73467399	   1430.48757098	   -312.92578656	     11.83397589	    -17.25948058
      2.67000000	     29.40192842	     29.47317591	     37.30649221	    -23.01690335	    801.69526773	    -43.84788236	      2.44527789	     42.53394732	     39.13806581	     45.00000000	      4.62520083	  -2282.60413673	  -2266.03789450	    144.15171951	   -179.99999979	   1427.45956224	     69.13960080	     20.15300771	     14.25768271	     -9.91871684	    -45.00000000	    -38.43173072	     45.00000000	    -45.00000000	  -2055.33434648	    437.82003674	     24.05049757	     21.05547133	   1430.45475604	   -313.29623775	     11.96257945	    -17.36645487
      2.68000000	     29.40113904	     29.25374186	     37.15514270	    -24.97087523	    803.76734572	    -44.06628297	      2.44963597	     42.41870680	     39.14627686	     45.00000000	      4.89760878	  -2282.65066479	  -2265.88289273	    144.03813181	   -179.99999979	   1427.28945311	     68.88414787	     20.16146724	     14.37149398	     -9.71560415	    -45.00000000	    -38.55014934	     45.00000000	    -45.00000000	  -2055.24341855	    437.95702635	     24.11622756	     21.34468923	   1430.37388504	   -313.70800817	     12.08067559	    -17.41819219
      2.69000000	     29.49406672	     28.99317052	     36.86465738	    -26.86559444	    805.88828268	    -44.29476451	      2.45916855	     42.33188323	     39.24965197	     45.00000000	      5.17724506	  -2282.64302967	  -2265.64117419	    144.09075221	   -179.99999979	   1427.29152026	     68.60074782	     20.31756723	     14.49264962	     -9.74913602	    -45.00000000	    -38.66782509	     45.00000000	    -45.00000000	  -2055.19282991	    438.04558537	     24.19997745	     21.71494148	   1430.33526102	   -314.13345857	     12.21092446	    -17.52372067
      2.70000000	     29.48380528	     28.80037891	     36.75838406	    -28.70493922	    808.05385256	    -44.53371905	      2.45716942	     42.22170883	     39.24601342	     45.00000000	      5.44700274	  -2282.68298923	  -2265.46276803	    143.96372379	   -179.99999979	   1427.07609867	     68.35646950	     20.31484191	     14.60866260	     -9.49095983	    -45.00000000	    -38.75951129	     45.00000000	    -45.00000000	  -2055.06521986	    438.16313258	     24.27091817	     22.02621806	   1430.28869826	   -314.59074294	     12.31893640	    -17.57605137
      2.71000000	     29.50825501	     28.56753178	     36.62102867	    -30.49573920	    810.26166282	    -44.78388205	      2.50746601	     42.14760072	     39.31366375	     45.00000000	      5.71953346	  -2282.68192898	  -2265.23317149	    143.90621638	   -179.99999979	   1426.95873614	     68.11563727	     20.36386195	     14.71761865	     -9.51039135	    -45.00000000	    -38.78163343	     45.00000000	    -45.00000000	  -2055.02881122	    438.30584670	     24.32101907	     22.32433899	   1430.27450954	   -315.07199689	     12.42390946	    -17.64129807
      2.72000000	     29.53943135	     28.34998816	     36.45545101	    -32.23964445	    812.50176417	    -45.04422243	      2.49844040	     42.03873337	     39.34058877	     45.00000000	      6.01898687	  -2282.69970604	  -2265.01390767	    143.84805567	   -179.99999979	   1426.85948998	     67.88711378	     20.44453834	     14.81390155	     -9.35989762	    -45.00000000	    -38.85798905	     45.00000000	    -45.00000000	  -2054.93197102	    438.41901927	     24.43001320	     22.66146933	   1430.22337575	   -315.54778320	     12.54816814	    -17.71575503
      2.73000000	     29.76670837	     27.99848094	     36.03000045	    -33.94358837	    814.77119089	    -45.31324501	      2.50168691	     41.96714415	     39.56849495	     45.00000000	      6.22813162	  -2282.65614954	  -2264.76772636	    144.01680827	   -179.99999979	   1427.00270018	     67.61063696	     20.77485901	     14.90872045	     -9.56079952	    -45.00000000	    -38.92169633	     45.00000000	    -45.00000000	  -2055.00750864	    438.48854446	     24.46645934	     23.05421927	   1430.17320883	   -315.98407632	     12.69314782	    -17.87021868
      2.74000000	     29.67061697	     27.84481316	     36.00674770	    -35.60297931	    817.05266059	    -45.58608532	      2.49441791	     41.79952930	     39.44391380	     45.00000000	      6.51150741	  -2282.65186708	  -2264.61174712	    143.86594237	   -179.99999979	   1426.79122973	     67.40413856	     20.74946047	     14.97682124	     -9.09692111	    -45.00000000	    -39.10130798	     45.00000000	    -45.00000000	  -2054.77119652	    438.57385281	     24.69269171	     23.49206144	   1430.13160894	   -316.40723835	     12.78149827	    -17.90647093
      2.75000000	     29.55031558	     27.70950772	     36.06819254	    -37.22434667	    819.34636140	    -45.85925438	      2.49159314	     41.76104533	     39.39982907	     45.00000000	      6.84681228	  -2282.71481314	  -2264.37234358	    143.73487678	   -179.99999979	   1426.57215565	     67.24087975	     20.63539228	     15.02864180	     -8.95380661	    -45.00000000	    -39.25053574	     45.00000000	    -45.00000000	  -2054.66178491	    438.74695417	     24.64458854	     23.63581437	   1430.08188644	   -316.87040936	     12.84374191	    -17.90129577
      2.76000000	     29.53899583	     27.50061240	     36.00524916	    -38.80765789	    821.64564754	    -46.12852740	      2.56902038	     41.68943517	     39.42393480	     45.00000000	      7.04209021	  -2282.65451380	  -2264.14993007	    143.71115116	   -179.99999979	   1426.51031169	     67.04366984	     20.74028468	     15.10473205	     -8.93990245	    -45.00000000	    -39.31443050	     45.00000000	    -45.00000000	  -2054.60269424	    438.87971178	     24.73576792	     24.00217385	   1430.07908854	   -317.30999396	     12.92614176	    -17.97625596
      2.77000000	     29.60510351	     27.26343750	     35.83421601	    -40.35101503	    823.94329332	    -46.39061628	      2.54867618	     41.60018272	     39.47133277	     45.00000000	      7.27683878	  -2282.59739224	  -2263.90481463	    143.69835761	   -179.99999979	   1426.44897024	     66.82594106	     20.87305049	     15.17177274	     -8.82382936	    -45.00000000	    -39.37956870	     45.00000000	    -45.00000000	  -2054.54222832	    438.97252869	     24.84126024	     24.36231658	   1430.05453383	   -317.72311040	     13.02068981	    -18.08119760
      2.78000000	     29.57020318	     27.06500506	     35.74797776	    -41.85364433	    826.23557673	    -46.64403501	      2.55955936	     41.49925796	     39.46182067	     45.00000000	      7.53535628	  -2282.58055533	  -2263.70072729	    143.66579421	   -179.99999979	   1426.35243419	     66.60059280	     20.92109261	     15.21849720	     -8.65917231	    -45.00000000	    -39.53032856	     45.00000000	    -45.00000000	  -2054.43316258	    439.09001408	     24.94140722	     24.69576237	   1430.01696934	   -318.12268585	     13.09515743	    -18.14425778
